<svg id="Layer_1" data-name="Layer 1" xmlns="http://www.w3.org/2000/svg" viewBox="0 0 137 38"><defs><style>.cls-1{fill:#231f20;}.cls-2{fill:#00a2d5;}</style></defs><title>brisqq-outlines</title><path class="cls-1" d="M23.55,23.29c0,6.48-4.49,9.21-11.8,9.21H0V0H10.77C19.21,0,21.6,4,21.6,8.72a7.21,7.21,0,0,1-3.46,6.48A8.18,8.18,0,0,1,23.55,23.29ZM11.12,3.36H3.51V14.08h8c3.17,0,6.53-.54,6.53-5.12S15.45,3.36,11.12,3.36ZM20,23.1c0-5.21-4.34-5.7-8.14-5.7H3.51V29.24H12C16.23,29.24,20,28.31,20,23.1Z"/><path class="cls-1" d="M46.51,32.5h-3l-6.06-9.36H31.57V32.5H29.06V9.29h8.53c5,0,7.87,2.3,7.87,6.75a6.45,6.45,0,0,1-5.33,6.72ZM43,16.21c0-2.12-.63-4.56-5.5-4.56H31.57v9.12h5.88C42.33,20.77,43,18.34,43,16.21Z"/><path class="cls-1" d="M53.2,9.29V32.5H50.69V9.29Z"/><path class="cls-1" d="M73.64,26.58c0,3.86-3.06,6.2-8.25,6.2a14.41,14.41,0,0,1-6.86-1.64V28.43a11.8,11.8,0,0,0,6.69,1.84c2.68,0,5.92-.63,5.92-3.69,0-6.79-12.81-3.38-12.81-11.14,0-3.13,2.09-6.47,8-6.47a13.13,13.13,0,0,1,5.82,1.39v2.58a11.32,11.32,0,0,0-5.57-1.46c-3.69,0-5.75,1.39-5.75,4C60.82,20.53,73.64,17.71,73.64,26.58Z"/><path class="cls-1" d="M90,32.74c.45,1.91,2,2.92,4.56,3V38c-5.4,0-6.76-3.2-7.1-5.26-6.37-.42-9.61-4.39-9.61-11.87C77.88,13,81.51,9,88.65,9s10.8,4,10.8,11.9C99.44,28.25,96.27,32.22,90,32.74Zm6.89-11.87c0-6.58-2.54-9.54-8.29-9.54s-8.25,3-8.25,9.54,2.54,9.54,8.25,9.54S96.93,27.49,96.93,20.88Z"/><path class="cls-1" d="M116.05,32.74c.45,1.91,2,2.92,4.56,3V38c-5.4,0-6.76-3.2-7.1-5.26-6.37-.42-9.61-4.39-9.61-11.87C103.9,13,107.52,9,114.66,9s10.8,4,10.8,11.9C125.45,28.25,122.28,32.22,116.05,32.74Zm6.89-11.87c0-6.58-2.54-9.54-8.29-9.54s-8.25,3-8.25,9.54,2.54,9.54,8.25,9.54S122.95,27.49,122.95,20.88Z"/><circle class="cls-2" cx="133.88" cy="32.85" r="3.12"/></svg>